<?xml version="1.0" encoding="UTF-8"?>
<svg xmlns="http://www.w3.org/2000/svg" xmlns:xlink="http://www.w3.org/1999/xlink" width="30px" height="30px" viewBox="0 0 50 50" version="1.1">
<g id="surface1">
<path style=" stroke:none;fill-rule:nonzero;fill:rgb(0%,0%,0%);fill-opacity:1;" d="M 25 0 C 23.703125 0 22.65625 1.046875 22.65625 2.34375 L 22.65625 8.59375 C 22.65625 9.890625 23.703125 10.9375 25 10.9375 C 26.296875 10.9375 27.34375 9.890625 27.34375 8.59375 L 27.34375 2.34375 C 27.34375 1.046875 26.296875 0 25 0 Z M 25 39.0625 C 23.703125 39.0625 22.65625 40.109375 22.65625 41.40625 L 22.65625 47.65625 C 22.65625 48.953125 23.703125 50 25 50 C 26.296875 50 27.34375 48.953125 27.34375 47.65625 L 27.34375 41.40625 C 27.34375 40.109375 26.296875 39.0625 25 39.0625 Z M 47.65625 27.34375 C 48.953125 27.34375 50 26.296875 50 25 C 50 23.703125 48.953125 22.65625 47.65625 22.65625 L 41.40625 22.65625 C 40.109375 22.65625 39.0625 23.703125 39.0625 25 C 39.0625 26.296875 40.109375 27.34375 41.40625 27.34375 Z M 10.9375 25 C 10.9375 23.703125 9.890625 22.65625 8.59375 22.65625 L 2.34375 22.65625 C 1.046875 22.65625 0 23.703125 0 25 C 0 26.296875 1.046875 27.34375 2.34375 27.34375 L 8.59375 27.34375 C 9.890625 27.34375 10.9375 26.296875 10.9375 25 Z M 42.675781 10.632812 C 43.59375 9.71875 43.59375 8.234375 42.675781 7.324219 C 41.757812 6.414062 40.273438 6.40625 39.367188 7.324219 L 34.941406 11.75 C 34.023438 12.664062 34.023438 14.148438 34.941406 15.058594 C 35.859375 15.964844 37.34375 15.976562 38.25 15.058594 Z M 15.058594 34.941406 C 14.140625 34.023438 12.65625 34.023438 11.746094 34.941406 L 7.324219 39.367188 C 6.40625 40.28125 6.40625 41.769531 7.324219 42.675781 C 8.242188 43.582031 9.726562 43.59375 10.632812 42.675781 L 15.058594 38.25 C 15.976562 37.335938 15.976562 35.851562 15.058594 34.941406 Z M 39.367188 42.675781 C 40.28125 43.59375 41.769531 43.59375 42.675781 42.675781 C 43.582031 41.757812 43.59375 40.273438 42.675781 39.367188 L 38.25 34.941406 C 37.335938 34.023438 35.851562 34.023438 34.941406 34.941406 C 34.035156 35.859375 34.023438 37.34375 34.941406 38.25 Z M 15.058594 15.058594 C 15.976562 14.140625 15.976562 12.65625 15.058594 11.746094 L 10.632812 7.324219 C 9.71875 6.40625 8.234375 6.40625 7.324219 7.324219 C 6.414062 8.242188 6.40625 9.726562 7.324219 10.632812 L 11.75 15.058594 C 12.664062 15.976562 14.148438 15.976562 15.058594 15.058594 Z M 25 35.9375 C 31.039062 35.9375 35.9375 31.039062 35.9375 25 C 35.9375 18.960938 31.039062 14.0625 25 14.0625 C 18.960938 14.0625 14.0625 18.960938 14.0625 25 C 14.0625 31.039062 18.960938 35.9375 25 35.9375 Z M 25 35.9375 "/>
</g>
</svg>
