<?xml version="1.0" encoding="UTF-8"?>
<svg xmlns="http://www.w3.org/2000/svg" xmlns:xlink="http://www.w3.org/1999/xlink" width="22px" height="34px" viewBox="0 0 38 50" version="1.1">
<g id="surface1">
<path style=" stroke:none;;fill-rule:nonzero;fill:rgb(100%,100%,100%);fill-opacity:1;" d="M 22.117188 3.125 C 9.894531 3.125 0 12.921875 0 25 C 0 37.078125 9.894531 46.875 22.117188 46.875 C 28.113281 46.875 33.546875 44.511719 37.535156 40.683594 C 38.03125 40.207031 38.160156 39.460938 37.839844 38.859375 C 37.523438 38.253906 36.84375 37.910156 36.160156 38.027344 C 35.191406 38.195312 34.199219 38.28125 33.179688 38.28125 C 23.589844 38.28125 15.8125 30.585938 15.8125 21.09375 C 15.8125 14.667969 19.375 9.074219 24.652344 6.125 C 25.253906 5.78125 25.5625 5.097656 25.414062 4.433594 C 25.265625 3.769531 24.691406 3.273438 23.996094 3.214844 C 23.375 3.164062 22.75 3.136719 22.117188 3.136719 Z M 22.117188 3.125 "/>
</g>
</svg>
